<svg xmlns="http://www.w3.org/2000/svg" version="1.1" xmlns:xlink="http://www.w3.org/1999/xlink" xmlns:svgjs="http://svgjs.dev/svgjs" width="800" height="560" preserveAspectRatio="none" viewBox="0 0 800 560"><g mask="url(&quot;#SvgjsMask1007&quot;)" fill="none"><path d="M352.89 569.07C451.93 464.2 370.28 45.49 547.19 25.79 724.1 6.09 833.02 158.31 935.8 160.19" stroke="rgba(153, 85, 187, 1)" stroke-width="2"></path><path d="M51.7 669.38C157.89 663.42 215.88 482.61 427.98 470.89 640.08 459.17 698.35 280.65 804.26 274.89" stroke="rgba(153, 85, 187, 1)" stroke-width="2"></path><path d="M111.8 670.05C190.24 660.34 235.83 483.56 366.52 482.81 497.21 482.06 493.88 552.81 621.25 552.81 748.61 552.81 809.93 483.44 875.97 482.81" stroke="rgba(153, 85, 187, 1)" stroke-width="2"></path><path d="M455.45 637.24C531.24 568.28 487.7 259.63 609.85 257.57 732 255.51 823.97 470.19 918.66 481.57" stroke="rgba(153, 85, 187, 1)" stroke-width="2"></path><path d="M284.23 646.05C399.34 596 420.22 237.13 571.94 234.58 723.66 232.03 770.13 441.08 859.65 452.98" stroke="rgba(153, 85, 187, 1)" stroke-width="2"></path></g><defs><mask id="SvgjsMask1007"><rect width="800" height="560" fill="#ffffff"></rect></mask></defs></svg>