<svg xmlns="http://www.w3.org/2000/svg" version="1.1" xmlns:xlink="http://www.w3.org/1999/xlink" xmlns:svgjs="http://svgjs.dev/svgjs" width="1000" height="880" preserveAspectRatio="none" viewBox="0 0 1000 880"><g mask="url(&quot;#SvgjsMask1488&quot;)" fill="none"><rect width="1000" height="880" x="0" y="0" fill="url(&quot;#SvgjsLinearGradient1489&quot;)"></rect><path d="M1000 0L647.14 0L1000 60.35z" fill="rgba(255, 255, 255, .1)"></path><path d="M647.14 0L1000 60.35L1000 266.32L455.72 0z" fill="rgba(255, 255, 255, .075)"></path><path d="M455.72 0L1000 266.32L1000 447.39L190.87 0z" fill="rgba(255, 255, 255, .05)"></path><path d="M190.87 0L1000 447.39L1000 568.65L164.03 0z" fill="rgba(255, 255, 255, .025)"></path><path d="M0 880L239.92 880L0 732.44z" fill="rgba(0, 0, 0, .1)"></path><path d="M0 732.44L239.92 880L357.25 880L0 661.57z" fill="rgba(0, 0, 0, .075)"></path><path d="M0 661.5699999999999L357.25 880L470.29 880L0 453.78999999999996z" fill="rgba(0, 0, 0, .05)"></path><path d="M0 453.78999999999996L470.29 880L635.04 880L0 164.60999999999996z" fill="rgba(0, 0, 0, .025)"></path></g><defs><mask id="SvgjsMask1488"><rect width="1000" height="880" fill="#ffffff"></rect></mask><linearGradient x1="3%" y1="-3.41%" x2="97%" y2="103.41%" gradientUnits="userSpaceOnUse" id="SvgjsLinearGradient1489"><stop stop-color="rgba(229, 178, 255, 1)" offset="0"></stop><stop stop-color="rgba(116, 68, 140, 1)" offset="1"></stop></linearGradient></defs></svg>